<svg height="1011.85546875" version="1.1" width="758.96484375" xmlns="http://www.w3.org/2000/svg" xmlns:xlink="http://www.w3.org/1999/xlink" style="overflow: hidden; position: relative;" viewBox="0 0 758.96484375 1011.85546875" preserveAspectRatio="xMidYMid meet"><desc style="-webkit-tap-highlight-color: rgba(0, 0, 0, 0);">Created with Raphaël 2.1.4</desc><defs style="-webkit-tap-highlight-color: rgba(0, 0, 0, 0);"><path stroke-linecap="round" d="M5,0 0,2.5 5,5z" id="raphael-marker-block" style="-webkit-tap-highlight-color: rgba(0, 0, 0, 0);"></path><marker id="raphael-marker-endblock33-obj22" markerHeight="3" markerWidth="3" orient="auto" refX="1.5" refY="1.5" style="-webkit-tap-highlight-color: rgba(0, 0, 0, 0);"><use xlink:href="#raphael-marker-block" transform="rotate(180 1.5 1.5) scale(0.6,0.6)" stroke-width="1.6667" fill="black" stroke="none" style="-webkit-tap-highlight-color: rgba(0, 0, 0, 0);"></use></marker><marker id="raphael-marker-endblock33-obj23" markerHeight="3" markerWidth="3" orient="auto" refX="1.5" refY="1.5" style="-webkit-tap-highlight-color: rgba(0, 0, 0, 0);"><use xlink:href="#raphael-marker-block" transform="rotate(180 1.5 1.5) scale(0.6,0.6)" stroke-width="1.6667" fill="black" stroke="none" style="-webkit-tap-highlight-color: rgba(0, 0, 0, 0);"></use></marker><marker id="raphael-marker-endblock33-obj24" markerHeight="3" markerWidth="3" orient="auto" refX="1.5" refY="1.5" style="-webkit-tap-highlight-color: rgba(0, 0, 0, 0);"><use xlink:href="#raphael-marker-block" transform="rotate(180 1.5 1.5) scale(0.6,0.6)" stroke-width="1.6667" fill="black" stroke="none" style="-webkit-tap-highlight-color: rgba(0, 0, 0, 0);"></use></marker><marker id="raphael-marker-endblock33-obj26" markerHeight="3" markerWidth="3" orient="auto" refX="1.5" refY="1.5" style="-webkit-tap-highlight-color: rgba(0, 0, 0, 0);"><use xlink:href="#raphael-marker-block" transform="rotate(180 1.5 1.5) scale(0.6,0.6)" stroke-width="1.6667" fill="black" stroke="none" style="-webkit-tap-highlight-color: rgba(0, 0, 0, 0);"></use></marker><marker id="raphael-marker-endblock33-obj28" markerHeight="3" markerWidth="3" orient="auto" refX="1.5" refY="1.5" style="-webkit-tap-highlight-color: rgba(0, 0, 0, 0);"><use xlink:href="#raphael-marker-block" transform="rotate(180 1.5 1.5) scale(0.6,0.6)" stroke-width="1.6667" fill="black" stroke="none" style="-webkit-tap-highlight-color: rgba(0, 0, 0, 0);"></use></marker><marker id="raphael-marker-endblock33-obj30" markerHeight="3" markerWidth="3" orient="auto" refX="1.5" refY="1.5" style="-webkit-tap-highlight-color: rgba(0, 0, 0, 0);"><use xlink:href="#raphael-marker-block" transform="rotate(180 1.5 1.5) scale(0.6,0.6)" stroke-width="1.6667" fill="black" stroke="none" style="-webkit-tap-highlight-color: rgba(0, 0, 0, 0);"></use></marker><marker id="raphael-marker-endblock33-obj32" markerHeight="3" markerWidth="3" orient="auto" refX="1.5" refY="1.5" style="-webkit-tap-highlight-color: rgba(0, 0, 0, 0);"><use xlink:href="#raphael-marker-block" transform="rotate(180 1.5 1.5) scale(0.6,0.6)" stroke-width="1.6667" fill="black" stroke="none" style="-webkit-tap-highlight-color: rgba(0, 0, 0, 0);"></use></marker><marker id="raphael-marker-endblock33-obj34" markerHeight="3" markerWidth="3" orient="auto" refX="1.5" refY="1.5" style="-webkit-tap-highlight-color: rgba(0, 0, 0, 0);"><use xlink:href="#raphael-marker-block" transform="rotate(180 1.5 1.5) scale(0.6,0.6)" stroke-width="1.6667" fill="black" stroke="none" style="-webkit-tap-highlight-color: rgba(0, 0, 0, 0);"></use></marker><marker id="raphael-marker-endblock33-obj36" markerHeight="3" markerWidth="3" orient="auto" refX="1.5" refY="1.5" style="-webkit-tap-highlight-color: rgba(0, 0, 0, 0);"><use xlink:href="#raphael-marker-block" transform="rotate(180 1.5 1.5) scale(0.6,0.6)" stroke-width="1.6667" fill="black" stroke="none" style="-webkit-tap-highlight-color: rgba(0, 0, 0, 0);"></use></marker><marker id="raphael-marker-endblock33-obj37" markerHeight="3" markerWidth="3" orient="auto" refX="1.5" refY="1.5" style="-webkit-tap-highlight-color: rgba(0, 0, 0, 0);"><use xlink:href="#raphael-marker-block" transform="rotate(180 1.5 1.5) scale(0.6,0.6)" stroke-width="1.6667" fill="black" stroke="none" style="-webkit-tap-highlight-color: rgba(0, 0, 0, 0);"></use></marker><marker id="raphael-marker-endblock33-obj38" markerHeight="3" markerWidth="3" orient="auto" refX="1.5" refY="1.5" style="-webkit-tap-highlight-color: rgba(0, 0, 0, 0);"><use xlink:href="#raphael-marker-block" transform="rotate(180 1.5 1.5) scale(0.6,0.6)" stroke-width="1.6667" fill="black" stroke="none" style="-webkit-tap-highlight-color: rgba(0, 0, 0, 0);"></use></marker><marker id="raphael-marker-endblock33-obj39" markerHeight="3" markerWidth="3" orient="auto" refX="1.5" refY="1.5" style="-webkit-tap-highlight-color: rgba(0, 0, 0, 0);"><use xlink:href="#raphael-marker-block" transform="rotate(180 1.5 1.5) scale(0.6,0.6)" stroke-width="1.6667" fill="black" stroke="none" style="-webkit-tap-highlight-color: rgba(0, 0, 0, 0);"></use></marker><marker id="raphael-marker-endblock33-obj40" markerHeight="3" markerWidth="3" orient="auto" refX="1.5" refY="1.5" style="-webkit-tap-highlight-color: rgba(0, 0, 0, 0);"><use xlink:href="#raphael-marker-block" transform="rotate(180 1.5 1.5) scale(0.6,0.6)" stroke-width="1.6667" fill="black" stroke="none" style="-webkit-tap-highlight-color: rgba(0, 0, 0, 0);"></use></marker><marker id="raphael-marker-endblock33-obj42" markerHeight="3" markerWidth="3" orient="auto" refX="1.5" refY="1.5" style="-webkit-tap-highlight-color: rgba(0, 0, 0, 0);"><use xlink:href="#raphael-marker-block" transform="rotate(180 1.5 1.5) scale(0.6,0.6)" stroke-width="1.6667" fill="black" stroke="none" style="-webkit-tap-highlight-color: rgba(0, 0, 0, 0);"></use></marker></defs><rect x="0" y="0" width="49.671875" height="35.5" rx="20" ry="20" fill="#ffffff" stroke="#000000" style="-webkit-tap-highlight-color: rgba(0, 0, 0, 0);" stroke-width="3" class="flowchart" id="st" transform="matrix(1,0,0,1,79.4141,37.375)"></rect><text x="10" y="17.75" text-anchor="start" font-family="&quot;Arial&quot;" font-size="14px" stroke="none" fill="#000000" style="-webkit-tap-highlight-color: rgba(0, 0, 0, 0); text-anchor: start; font-family: Arial; font-size: 14px;" id="stt" class="flowchartt" transform="matrix(1,0,0,1,79.4141,37.375)" stroke-width="1"><tspan dy="4.75" style="-webkit-tap-highlight-color: rgba(0, 0, 0, 0);">Start</tspan></text><a xlink:href="ValidateParameter.md" style="-webkit-tap-highlight-color: rgba(0, 0, 0, 0);"><rect x="0" y="0" width="161.09375" height="35.5" rx="0" ry="0" fill="#ffffff" stroke="#000000" style="-webkit-tap-highlight-color: rgba(0, 0, 0, 0);" stroke-width="3" class="flowchart" id="val" transform="matrix(1,0,0,1,23.7031,160.25)"></rect></a><a xlink:href="ValidateParameter.md" style="-webkit-tap-highlight-color: rgba(0, 0, 0, 0);"><text x="10" y="17.75" text-anchor="start" font-family="&quot;Arial&quot;" font-size="14px" stroke="none" fill="#000000" style="-webkit-tap-highlight-color: rgba(0, 0, 0, 0); text-anchor: start; font-family: Arial; font-size: 14px;" id="valt" class="flowchartt" transform="matrix(1,0,0,1,23.7031,160.25)" stroke-width="1"><tspan dy="4.75" style="-webkit-tap-highlight-color: rgba(0, 0, 0, 0);">ValidateParameter.ps1</tspan></text></a><path fill="#ffffff" stroke="#000000" d="M34.0078125,17.00390625L0,34.0078125L68.015625,68.015625L136.03125,34.0078125L68.015625,0L0,34.0078125" stroke-width="3" id="succ" class="flowchart" style="-webkit-tap-highlight-color: rgba(0, 0, 0, 0);" transform="matrix(1,0,0,1,36.2344,266.8672)"></path><text x="39.0078125" y="34.0078125" text-anchor="start" font-family="&quot;Arial&quot;" font-size="14px" stroke="none" fill="#000000" style="-webkit-tap-highlight-color: rgba(0, 0, 0, 0); text-anchor: start; font-family: Arial; font-size: 14px;" id="succt" class="flowchartt" transform="matrix(1,0,0,1,36.2344,266.8672)" stroke-width="1"><tspan dy="4.7578125" style="-webkit-tap-highlight-color: rgba(0, 0, 0, 0);">Success?</tspan></text><path fill="#ffffff" stroke="#000000" d="M49.125,24.5625L0,49.125L98.25,98.25L196.5,49.125L98.25,0L0,49.125" stroke-width="3" id="force" class="flowchart" style="-webkit-tap-highlight-color: rgba(0, 0, 0, 0);" transform="matrix(1,0,0,1,6,390.8828)"></path><text x="54.125" y="49.125" text-anchor="start" font-family="&quot;Arial&quot;" font-size="14px" stroke="none" fill="#000000" style="-webkit-tap-highlight-color: rgba(0, 0, 0, 0); text-anchor: start; font-family: Arial; font-size: 14px;" id="forcet" class="flowchartt" transform="matrix(1,0,0,1,6,390.8828)" stroke-width="1"><tspan dy="4.75" style="-webkit-tap-highlight-color: rgba(0, 0, 0, 0);">FORCE = True?</tspan></text><path fill="#ffffff" stroke="#000000" d="M45.97265625,22.986328125L0,45.97265625L91.9453125,91.9453125L183.890625,45.97265625L91.9453125,0L0,45.97265625" stroke-width="3" id="pfx" class="flowchart" style="-webkit-tap-highlight-color: rgba(0, 0, 0, 0);" transform="matrix(1,0,0,1,12.3047,548.2852)"></path><text x="50.97265625" y="45.97265625" text-anchor="start" font-family="&quot;Arial&quot;" font-size="14px" stroke="none" fill="#000000" style="-webkit-tap-highlight-color: rgba(0, 0, 0, 0); text-anchor: start; font-family: Arial; font-size: 14px;" id="pfxt" class="flowchartt" transform="matrix(1,0,0,1,12.3047,548.2852)" stroke-width="1"><tspan dy="4.75390625" style="-webkit-tap-highlight-color: rgba(0, 0, 0, 0);">PFX provided?</tspan><tspan dy="16.8" x="50.97265625" style="-webkit-tap-highlight-color: rgba(0, 0, 0, 0);"></tspan></text><a xlink:href="ImportSSL.md" style="-webkit-tap-highlight-color: rgba(0, 0, 0, 0);"><rect x="0" y="0" width="112.59375" height="35.5" rx="0" ry="0" fill="#ffffff" stroke="#000000" style="-webkit-tap-highlight-color: rgba(0, 0, 0, 0);" stroke-width="3" class="flowchart" id="import" transform="matrix(1,0,0,1,47.9531,727.6055)"></rect></a><a xlink:href="ImportSSL.md" style="-webkit-tap-highlight-color: rgba(0, 0, 0, 0);"><text x="10" y="17.75" text-anchor="start" font-family="&quot;Arial&quot;" font-size="14px" stroke="none" fill="#000000" style="-webkit-tap-highlight-color: rgba(0, 0, 0, 0); text-anchor: start; font-family: Arial; font-size: 14px;" id="importt" class="flowchartt" transform="matrix(1,0,0,1,47.9531,727.6055)" stroke-width="1"><tspan dy="4.75" style="-webkit-tap-highlight-color: rgba(0, 0, 0, 0);">ImportSSL.ps1</tspan></text></a><a xlink:href="ActivateSSL.md&#10;" style="-webkit-tap-highlight-color: rgba(0, 0, 0, 0);"><rect x="0" y="0" width="123.21875" height="35.5" rx="0" ry="0" fill="#ffffff" stroke="#000000" style="-webkit-tap-highlight-color: rgba(0, 0, 0, 0);" stroke-width="3" class="flowchart" id="activate" transform="matrix(1,0,0,1,42.6406,850.4805)"></rect></a><a xlink:href="ActivateSSL.md&#10;" style="-webkit-tap-highlight-color: rgba(0, 0, 0, 0);"><text x="10" y="17.75" text-anchor="start" font-family="&quot;Arial&quot;" font-size="14px" stroke="none" fill="#000000" style="-webkit-tap-highlight-color: rgba(0, 0, 0, 0); text-anchor: start; font-family: Arial; font-size: 14px;" id="activatet" class="flowchartt" transform="matrix(1,0,0,1,42.6406,850.4805)" stroke-width="1"><tspan dy="4.75" style="-webkit-tap-highlight-color: rgba(0, 0, 0, 0);">ActivateSSL.ps1</tspan></text></a><rect x="0" y="0" width="44.90625" height="35.5" rx="20" ry="20" fill="#ffffff" stroke="#000000" style="-webkit-tap-highlight-color: rgba(0, 0, 0, 0);" stroke-width="3" class="flowchart" id="e" transform="matrix(1,0,0,1,81.7969,973.3555)"></rect><text x="10" y="17.75" text-anchor="start" font-family="&quot;Arial&quot;" font-size="14px" stroke="none" fill="#000000" style="-webkit-tap-highlight-color: rgba(0, 0, 0, 0); text-anchor: start; font-family: Arial; font-size: 14px;" id="et" class="flowchartt" transform="matrix(1,0,0,1,81.7969,973.3555)" stroke-width="1"><tspan dy="4.75" style="-webkit-tap-highlight-color: rgba(0, 0, 0, 0);">End</tspan></text><a xlink:href="CreateSSL.md" style="-webkit-tap-highlight-color: rgba(0, 0, 0, 0);"><rect x="0" y="0" width="114.9375" height="35.5" rx="0" ry="0" fill="#ffffff" stroke="#000000" style="-webkit-tap-highlight-color: rgba(0, 0, 0, 0);" stroke-width="3" class="flowchart" id="create" transform="matrix(1,0,0,1,292.9766,576.5078)"></rect></a><a xlink:href="CreateSSL.md" style="-webkit-tap-highlight-color: rgba(0, 0, 0, 0);"><text x="10" y="17.75" text-anchor="start" font-family="&quot;Arial&quot;" font-size="14px" stroke="none" fill="#000000" style="-webkit-tap-highlight-color: rgba(0, 0, 0, 0); text-anchor: start; font-family: Arial; font-size: 14px;" id="createt" class="flowchartt" transform="matrix(1,0,0,1,292.9766,576.5078)" stroke-width="1"><tspan dy="4.75" style="-webkit-tap-highlight-color: rgba(0, 0, 0, 0);">CreateSSL.ps1</tspan></text></a><a xlink:href="CheckExistingSSL.md" style="-webkit-tap-highlight-color: rgba(0, 0, 0, 0);"><rect x="0" y="0" width="161.625" height="35.5" rx="0" ry="0" fill="#ffffff" stroke="#000000" style="-webkit-tap-highlight-color: rgba(0, 0, 0, 0);" stroke-width="3" class="flowchart" id="check" transform="matrix(1,0,0,1,457.9141,422.2578)"></rect></a><a xlink:href="CheckExistingSSL.md" style="-webkit-tap-highlight-color: rgba(0, 0, 0, 0);"><text x="10" y="17.75" text-anchor="start" font-family="&quot;Arial&quot;" font-size="14px" stroke="none" fill="#000000" style="-webkit-tap-highlight-color: rgba(0, 0, 0, 0); text-anchor: start; font-family: Arial; font-size: 14px;" id="checkt" class="flowchartt" transform="matrix(1,0,0,1,457.9141,422.2578)" stroke-width="1"><tspan dy="4.75" style="-webkit-tap-highlight-color: rgba(0, 0, 0, 0);">CheckExistingSSL.ps1</tspan></text></a><path fill="#ffffff" stroke="#000000" d="M39.55078125,19.775390625L0,39.55078125L79.1015625,79.1015625L158.203125,39.55078125L79.1015625,0L0,39.55078125" stroke-width="3" id="exists" class="flowchart" style="-webkit-tap-highlight-color: rgba(0, 0, 0, 0);" transform="matrix(1,0,0,1,459.625,523.332)"></path><text x="44.55078125" y="39.55078125" text-anchor="start" font-family="&quot;Arial&quot;" font-size="14px" stroke="none" fill="#000000" style="-webkit-tap-highlight-color: rgba(0, 0, 0, 0); text-anchor: start; font-family: Arial; font-size: 14px;" id="existst" class="flowchartt" transform="matrix(1,0,0,1,459.625,523.332)" stroke-width="1"><tspan dy="4.75390625" style="-webkit-tap-highlight-color: rgba(0, 0, 0, 0);">SSL Exists?</tspan></text><path fill="none" stroke="#000000" d="M104.25,72.875C104.25,72.875,104.25,137.88116826862097,104.25,155.75151628387175" stroke-width="3" marker-end="url(#raphael-marker-endblock33-obj22)" style="-webkit-tap-highlight-color: rgba(0, 0, 0, 0);"></path><path fill="none" stroke="#000000" d="M104.25,195.75C104.25,195.75,104.25,246.73152881115675,104.25,262.36453666926536" stroke-width="3" marker-end="url(#raphael-marker-endblock33-obj23)" style="-webkit-tap-highlight-color: rgba(0, 0, 0, 0);"></path><path fill="none" stroke="#000000" d="M104.25,334.8828125C104.25,334.8828125,104.25,373.08358335494995,104.25,386.38297281763516" stroke-width="3" marker-end="url(#raphael-marker-endblock33-obj24)" style="-webkit-tap-highlight-color: rgba(0, 0, 0, 0);"></path><text x="109.25" y="344.8828125" text-anchor="start" font-family="&quot;Arial&quot;" font-size="14px" stroke="none" fill="#000000" style="-webkit-tap-highlight-color: rgba(0, 0, 0, 0); text-anchor: start; font-family: Arial; font-size: 14px;" stroke-width="1"><tspan dy="4.7578125" style="-webkit-tap-highlight-color: rgba(0, 0, 0, 0);">yes</tspan></text><path fill="none" stroke="#000000" d="M172.265625,300.875C172.265625,300.875,197.265625,300.875,197.265625,300.875C197.265625,300.875,197.265625,948.35546875,197.265625,948.35546875C197.265625,948.35546875,104.25,948.35546875,104.25,948.35546875C104.25,948.35546875,104.25,961.6594400405884,104.25,968.8570963833481" stroke-width="3" marker-end="url(#raphael-marker-endblock33-obj26)" style="-webkit-tap-highlight-color: rgba(0, 0, 0, 0);"></path><text x="177.265625" y="290.875" text-anchor="start" font-family="&quot;Arial&quot;" font-size="14px" stroke="none" fill="#000000" style="-webkit-tap-highlight-color: rgba(0, 0, 0, 0); text-anchor: start; font-family: Arial; font-size: 14px;" stroke-width="1"><tspan dy="4.75" style="-webkit-tap-highlight-color: rgba(0, 0, 0, 0);">no</tspan></text><path fill="none" stroke="#000000" d="M104.25,489.1328125C104.25,489.1328125,104.25,529.9864907227457,104.25,543.7905655909781" stroke-width="3" marker-end="url(#raphael-marker-endblock33-obj28)" style="-webkit-tap-highlight-color: rgba(0, 0, 0, 0);"></path><text x="109.25" y="499.1328125" text-anchor="start" font-family="&quot;Arial&quot;" font-size="14px" stroke="none" fill="#000000" style="-webkit-tap-highlight-color: rgba(0, 0, 0, 0); text-anchor: start; font-family: Arial; font-size: 14px;" stroke-width="1"><tspan dy="4.7578125" style="-webkit-tap-highlight-color: rgba(0, 0, 0, 0);">yes</tspan></text><path fill="none" stroke="#000000" d="M202.5,440.0078125C202.5,440.0078125,419.2772075437242,440.0078125,453.41326683710855,440.0078125" stroke-width="3" marker-end="url(#raphael-marker-endblock33-obj30)" style="-webkit-tap-highlight-color: rgba(0, 0, 0, 0);"></path><text x="207.5" y="430.0078125" text-anchor="start" font-family="&quot;Arial&quot;" font-size="14px" stroke="none" fill="#000000" style="-webkit-tap-highlight-color: rgba(0, 0, 0, 0); text-anchor: start; font-family: Arial; font-size: 14px;" stroke-width="1"><tspan dy="4.7578125" style="-webkit-tap-highlight-color: rgba(0, 0, 0, 0);">no</tspan></text><path fill="none" stroke="#000000" d="M104.25,640.23046875C104.25,640.23046875,104.25,705.236637018621,104.25,723.1069850338718" stroke-width="3" marker-end="url(#raphael-marker-endblock33-obj32)" style="-webkit-tap-highlight-color: rgba(0, 0, 0, 0);"></path><text x="109.25" y="650.23046875" text-anchor="start" font-family="&quot;Arial&quot;" font-size="14px" stroke="none" fill="#000000" style="-webkit-tap-highlight-color: rgba(0, 0, 0, 0); text-anchor: start; font-family: Arial; font-size: 14px;" stroke-width="1"><tspan dy="4.76171875" style="-webkit-tap-highlight-color: rgba(0, 0, 0, 0);">yes</tspan></text><path fill="none" stroke="#000000" d="M196.1953125,594.2578125C196.1953125,594.2578125,191.265625,594.2578125,191.265625,594.2578125C191.265625,594.2578125,197.265625,582.2578125,203.265625,594.2578125C203.265625,594.2578125,270.31231662770733,594.2578125,288.48170815767685,594.2578125" stroke-width="3" marker-end="url(#raphael-marker-endblock33-obj34)" style="-webkit-tap-highlight-color: rgba(0, 0, 0, 0);"></path><text x="201.1953125" y="584.2578125" text-anchor="start" font-family="&quot;Arial&quot;" font-size="14px" stroke="none" fill="#000000" style="-webkit-tap-highlight-color: rgba(0, 0, 0, 0); text-anchor: start; font-family: Arial; font-size: 14px;" stroke-width="1"><tspan dy="4.7578125" style="-webkit-tap-highlight-color: rgba(0, 0, 0, 0);">no</tspan></text><path fill="none" stroke="#000000" d="M104.25,763.10546875C104.25,763.10546875,104.25,828.111637018621,104.25,845.9819850338718" stroke-width="3" marker-end="url(#raphael-marker-endblock33-obj36)" style="-webkit-tap-highlight-color: rgba(0, 0, 0, 0);"></path><path fill="none" stroke="#000000" d="M104.25,885.98046875C104.25,885.98046875,104.25,950.986637018621,104.25,968.8569850338718" stroke-width="3" marker-end="url(#raphael-marker-endblock33-obj37)" style="-webkit-tap-highlight-color: rgba(0, 0, 0, 0);"></path><path fill="none" stroke="#000000" d="M350.4453125,612.0078125C350.4453125,612.0078125,350.4453125,825.48046875,350.4453125,825.48046875C350.4453125,825.48046875,203.265625,825.48046875,203.265625,825.48046875C203.265625,825.48046875,197.265625,813.48046875,191.265625,825.48046875C191.265625,825.48046875,104.25,825.48046875,104.25,825.48046875C104.25,825.48046875,104.25,838.7844400405884,104.25,845.9820963833481" stroke-width="3" marker-end="url(#raphael-marker-endblock33-obj38)" style="-webkit-tap-highlight-color: rgba(0, 0, 0, 0);"></path><path fill="none" stroke="#000000" d="M538.7265625,457.7578125C538.7265625,457.7578125,538.7265625,504.0097696185112,538.7265625,518.8248496330343" stroke-width="3" marker-end="url(#raphael-marker-endblock33-obj39)" style="-webkit-tap-highlight-color: rgba(0, 0, 0, 0);"></path><path fill="none" stroke="#000000" d="M538.7265625,602.43359375C538.7265625,602.43359375,538.7265625,948.35546875,538.7265625,948.35546875C538.7265625,948.35546875,104.25,948.35546875,104.25,948.35546875C104.25,948.35546875,104.25,961.6594400405884,104.25,968.8570963833481" stroke-width="3" marker-end="url(#raphael-marker-endblock33-obj40)" style="-webkit-tap-highlight-color: rgba(0, 0, 0, 0);"></path><text x="543.7265625" y="612.43359375" text-anchor="start" font-family="&quot;Arial&quot;" font-size="14px" stroke="none" fill="#000000" style="-webkit-tap-highlight-color: rgba(0, 0, 0, 0); text-anchor: start; font-family: Arial; font-size: 14px;" stroke-width="1"><tspan dy="4.76171875" style="-webkit-tap-highlight-color: rgba(0, 0, 0, 0);">yes</tspan></text><path fill="none" stroke="#000000" d="M617.828125,562.8828125C617.828125,562.8828125,642.828125,562.8828125,642.828125,562.8828125C642.828125,562.8828125,642.828125,523.28515625,642.828125,523.28515625C642.828125,523.28515625,544.7265625,523.28515625,544.7265625,523.28515625C544.7265625,523.28515625,538.7265625,511.28515625,532.7265625,523.28515625C532.7265625,523.28515625,203.265625,523.28515625,203.265625,523.28515625C203.265625,523.28515625,197.265625,511.28515625,191.265625,523.28515625C191.265625,523.28515625,104.25,523.28515625,104.25,523.28515625C104.25,523.28515625,104.25,536.5891275405884,104.25,543.7867838833481" stroke-width="3" marker-end="url(#raphael-marker-endblock33-obj42)" style="-webkit-tap-highlight-color: rgba(0, 0, 0, 0);"></path><text x="622.828125" y="552.8828125" text-anchor="start" font-family="&quot;Arial&quot;" font-size="14px" stroke="none" fill="#000000" style="-webkit-tap-highlight-color: rgba(0, 0, 0, 0); text-anchor: start; font-family: Arial; font-size: 14px;" stroke-width="1"><tspan dy="4.7578125" style="-webkit-tap-highlight-color: rgba(0, 0, 0, 0);">no</tspan></text></svg>